<svg xmlns="http://www.w3.org/2000/svg" viewBox="0 0 317.29 317.27"><defs><style>.cls-1{fill:#fff;}</style></defs><g id="Camada_2" data-name="Camada 2"><g id="Camada_1-2" data-name="Camada 1"><path class="cls-1" d="M0,273.2l33.05-22,33.05,22L0,317.27ZM317.27,44.09l-33,22-33.05-22L317.27,0Zm0,167.42L158.64,317.27,0,211.51,188.39,85.93l33.05,22-152,101.35L162,271l43-28.64-33.05-22,79.33-52.9,66.09,44.08ZM0,105.78,158.65,0,317.29,105.78,128.9,231.36l-33.05-22L247.88,108,155.34,46.29l-43,28.65,33,22L66.1,149.86,0,105.78Z"/></g></g></svg>